<?xml version="1.0" encoding="UTF-8" standalone="no"?>
<!-- Created with Inkscape (http://www.inkscape.org/) -->

<svg
   xmlns:dc="http://purl.org/dc/elements/1.1/"
   xmlns:cc="http://creativecommons.org/ns#"
   xmlns:rdf="http://www.w3.org/1999/02/22-rdf-syntax-ns#"
   xmlns:svg="http://www.w3.org/2000/svg"
   xmlns="http://www.w3.org/2000/svg"
   xmlns:sodipodi="http://sodipodi.sourceforge.net/DTD/sodipodi-0.dtd"
   xmlns:inkscape="http://www.inkscape.org/namespaces/inkscape"
   width="700mm"
   height="700mm"
   viewBox="0 0 700.00001 700.00001"
   version="1.1"
   id="svg8"
   inkscape:version="0.92.3 (2405546, 2018-03-11)"
   sodipodi:docname="logo.svg"
   inkscape:export-filename="C:\repo\laundromat\CashWash\resource\logo.png"
   inkscape:export-xdpi="4.6399999"
   inkscape:export-ydpi="4.6399999">
  <defs
     id="defs2" />
  <sodipodi:namedview
     id="base"
     pagecolor="#ffffff"
     bordercolor="#666666"
     borderopacity="1.0"
     inkscape:pageopacity="0.0"
     inkscape:pageshadow="2"
     inkscape:zoom="0.12374369"
     inkscape:cx="-1097.8185"
     inkscape:cy="927.32793"
     inkscape:document-units="mm"
     inkscape:current-layer="layer1"
     showgrid="false"
     inkscape:window-width="1920"
     inkscape:window-height="1057"
     inkscape:window-x="-8"
     inkscape:window-y="-8"
     inkscape:window-maximized="1"
     fit-margin-top="1"
     fit-margin-left="1"
     fit-margin-right="1"
     fit-margin-bottom="1" />
  <metadata
     id="metadata5">
    <rdf:RDF>
      <cc:Work
         rdf:about="">
        <dc:format>image/svg+xml</dc:format>
        <dc:type
           rdf:resource="http://purl.org/dc/dcmitype/StillImage" />
        <dc:title></dc:title>
      </cc:Work>
    </rdf:RDF>
  </metadata>
  <g
     inkscape:label="Livello 1"
     inkscape:groupmode="layer"
     id="layer1"
     transform="translate(1,219.00001)">
    <!-- Glyphs by FontAwesome (https://fontawesome.com/license/free), licensed under CC-BY 4.0 https://creativecommons.org/licenses/by/4.0/ -->
    <!-- CC/fa-credit-card -->
    <path
       d="M 568.52497,17.032906 H 88.724968 c -26.6,0 -48.1,21.5 -48.1,48 V 417.03291 c 0,26.5 21.5,48 48.1,48 H 568.52497 c 26.6,0 48.1,-21.5 48.1,-48 V 65.032906 c 0,-26.5 -21.5,-48 -48.1,-48 z m -473.800002,48 H 562.52497 c 3.3,0 6,2.7 6,6 V 113.03291 H 88.724968 V 71.032906 c 0,-3.3 2.7,-6 6,-6 z M 562.52497,417.03291 H 94.724968 c -3.3,0 -6,-2.7 -6,-6 v -170 H 568.52497 v 170 c 0,3.3 -2.7,6 -6,6 z m -329.9,-100 v 40 c 0,6.6 -5.4,12 -12,12 h -72 c -6.6,0 -12,-5.4 -12,-12 v -40 c 0,-6.6 5.4,-12 12,-12 h 72 c 6.6,0 12,5.4 12,12 z m 192,0 v 40 c 0,6.6 -5.4,12 -12,12 h -136 c -6.6,0 -12,-5.4 -12,-12 v -40 c 0,-6.6 5.4,-12 12,-12 h 136 c 6.6,0 12,5.4 12,12 z"
       class=""
       id="path5"
       style="fill:#d5e98b;fill-opacity:1"
       inkscape:connector-curvature="0" />
    <!-- drop/fa-tint -->
    <path
       d="m 508.83818,-183.173 c -7.94,-28.78 -49.44,-30.12 -58.44,0 -46.77,157.760003 -146.78,200.630003 -146.78,311.82 0,98.44 78.72,178.09 176,178.09 97.28,0 176,-79.65 176,-178.09 0,-111.749997 -99.79,-153.339997 -146.78,-311.82 z m -29.22,425.91 c -61.75,0 -112,-50.25 -112,-112 0,-8.84 7.16,-16 16,-16 8.84,0 16,7.16 16,16 0,44.11 35.89,80 80,80 8.84,0 16,7.16 16,16 0,8.84 -7.16,16 -16,16 z"
       class=""
       id="path7"
       inkscape:connector-curvature="0"
       style="fill:#817ea4;fill-opacity:1" />
  </g>
</svg>
